<svg width="132" height="132" viewBox="0 0 132 132" fill="none" xmlns="http://www.w3.org/2000/svg">
<path d="M68.8431 13.9597C68.4627 13.4405 67.9653 13.0183 67.3912 12.7272C66.8171 12.4361 66.1825 12.2844 65.5389 12.2844C64.8952 12.2844 64.2606 12.4361 63.6865 12.7272C63.1124 13.0183 62.615 13.4405 62.2346 13.9597L32.196 54.9215C31.7476 55.5319 31.4772 56.2548 31.415 57.0098C31.3527 57.7647 31.501 58.5221 31.8434 59.1978C32.1858 59.8735 32.7088 60.441 33.3544 60.8373C34 61.2336 34.7428 61.4431 35.5003 61.4426H44.0695L23.9382 90.5145C23.5124 91.1292 23.2631 91.8487 23.2172 92.5951C23.1713 93.3414 23.3306 94.0861 23.6777 94.7484C24.0249 95.4106 24.5467 95.9652 25.1867 96.3521C25.8266 96.7389 26.5602 96.9431 27.3079 96.9427H61.4427V114.693C61.4427 115.779 61.8743 116.821 62.6424 117.589C63.4106 118.357 64.4525 118.789 65.5389 118.789C66.6252 118.789 67.6671 118.357 68.4353 117.589C69.2035 116.821 69.6351 115.779 69.6351 114.693V96.9427H103.77C104.518 96.9431 105.251 96.7389 105.891 96.3521C106.531 95.9652 107.053 95.4106 107.4 94.7484C107.747 94.0861 107.906 93.3414 107.861 92.5951C107.815 91.8487 107.565 91.1292 107.14 90.5145L87.0028 61.4426H95.5775C96.335 61.4431 97.0778 61.2336 97.7234 60.8373C98.3689 60.441 98.892 59.8735 99.2343 59.1978C99.5767 58.5221 99.725 57.7647 99.6628 57.0098C99.6005 56.2548 99.3302 55.5319 98.8817 54.9215L68.8431 13.9597Z" fill="black"/>
</svg>
