<svg width="132" height="132" viewBox="0 0 132 132" fill="none" xmlns="http://www.w3.org/2000/svg">
<path d="M76.4621 27.3078C77.8758 27.3078 79.2345 27.8559 80.2524 28.837L80.7276 29.3559L100.93 54.6156H103.77C107.949 54.6154 111.971 56.2122 115.011 59.0793C118.052 61.9464 119.882 65.867 120.127 70.0391L120.155 71.0003V92.8466C120.155 94.2951 119.579 95.6842 118.555 96.7085C117.531 97.7327 116.142 98.3081 114.693 98.3081H108.298C107.167 101.502 105.074 104.268 102.307 106.223C99.5402 108.179 96.2351 109.229 92.8468 109.229C89.4584 109.229 86.1534 108.179 83.3864 106.223C80.6195 104.268 78.5267 101.502 77.396 98.3081H53.6819C52.5513 101.502 50.4585 104.268 47.6915 106.223C44.9246 108.179 41.6195 109.229 38.2312 109.229C34.8428 109.229 31.5377 108.179 28.7708 106.223C26.0038 104.268 23.911 101.502 22.7804 98.3081H16.3849C14.9364 98.3081 13.5472 97.7327 12.523 96.7085C11.4988 95.6842 10.9233 94.2951 10.9233 92.8466V60.0772L10.9616 59.4382L11.0053 59.1323L11.0981 58.7063L11.1636 58.5097L11.2401 58.2366L22.2397 30.7431C22.6446 29.7297 23.3438 28.8608 24.2472 28.2484C25.1506 27.6361 26.2167 27.3085 27.308 27.3078H76.4621ZM38.2312 87.385C36.7827 87.385 35.3935 87.9604 34.3692 88.9846C33.345 90.0089 32.7696 91.3981 32.7696 92.8466C32.7696 94.2951 33.345 95.6842 34.3692 96.7085C35.3935 97.7327 36.7827 98.3081 38.2312 98.3081C39.6797 98.3081 41.0688 97.7327 42.0931 96.7085C43.1173 95.6842 43.6927 94.2951 43.6927 92.8466C43.6927 91.3981 43.1173 90.0089 42.0931 88.9846C41.0688 87.9604 39.6797 87.385 38.2312 87.385ZM92.8468 87.385C91.3983 87.385 90.0091 87.9604 88.9849 88.9846C87.9606 90.0089 87.3852 91.3981 87.3852 92.8466C87.3852 94.2951 87.9606 95.6842 88.9849 96.7085C90.0091 97.7327 91.3983 98.3081 92.8468 98.3081C94.2953 98.3081 95.6845 97.7327 96.7087 96.7085C97.7329 95.6842 98.3083 94.2951 98.3083 92.8466C98.3083 91.3981 97.7329 90.0089 96.7087 88.9846C95.6845 87.9604 94.2953 87.385 92.8468 87.385ZM60.0774 38.2309H31L24.4462 54.6156H60.0774V38.2309ZM73.8405 38.2309H71.0005V54.6156H86.9483L73.8405 38.2309Z" fill="black"/>
</svg>
