<svg width="20" height="17" viewBox="0 0 20 17" fill="none" xmlns="http://www.w3.org/2000/svg">
<mask id="mask0_1_323" style="mask-type:luminance" maskUnits="userSpaceOnUse" x="0" y="0" width="20" height="17">
<path d="M12.0001 0H8.00015C4.2292 0 2.34322 -1.24914e-07 1.17224 1.22808C0.328246 2.11142 0.0922489 3.38351 0.0262497 5.50122H19.974C19.908 3.38351 19.672 2.11142 18.828 1.22808C17.657 -1.24914e-07 15.7711 0 12.0001 0ZM8.00015 16.7656H12.0001C15.7711 16.7656 17.657 16.7656 18.828 15.5375C19.999 14.3095 20 12.3343 20 8.38281C20 7.92036 19.9993 7.48376 19.998 7.073H0.00225005C0.000250076 7.48376 -0.000416676 7.92036 0.000249982 8.38281C0.000249982 12.3343 0.00024986 14.3105 1.17224 15.5375C2.34422 16.7646 4.2292 16.7656 8.00015 16.7656Z" fill="white"/>
<path fill-rule="evenodd" clip-rule="evenodd" d="M3.25049 12.5742C3.25049 12.3658 3.3295 12.1659 3.47016 12.0185C3.61081 11.8711 3.80157 11.7883 4.00048 11.7883H8.00043C8.19934 11.7883 8.3901 11.8711 8.53075 12.0185C8.6714 12.1659 8.75042 12.3658 8.75042 12.5742C8.75042 12.7826 8.6714 12.9825 8.53075 13.1299C8.3901 13.2773 8.19934 13.3601 8.00043 13.3601H4.00048C3.80157 13.3601 3.61081 13.2773 3.47016 13.1299C3.3295 12.9825 3.25049 12.7826 3.25049 12.5742ZM9.75041 12.5742C9.75041 12.3658 9.82942 12.1659 9.97007 12.0185C10.1107 11.8711 10.3015 11.7883 10.5004 11.7883H12.0004C12.1993 11.7883 12.3901 11.8711 12.5307 12.0185C12.6714 12.1659 12.7504 12.3658 12.7504 12.5742C12.7504 12.7826 12.6714 12.9825 12.5307 13.1299C12.3901 13.2773 12.1993 13.3601 12.0004 13.3601H10.5004C10.3015 13.3601 10.1107 13.2773 9.97007 13.1299C9.82942 12.9825 9.75041 12.7826 9.75041 12.5742Z" fill="black"/>
</mask>
<g mask="url(#mask0_1_323)">
<path d="M-1.99951 -4.19141H22.0002V20.957H-1.99951V-4.19141Z" fill="#C9613D"/>
</g>
</svg>
