<svg width="16" height="21" viewBox="0 0 16 21" fill="none" xmlns="http://www.w3.org/2000/svg">
<path d="M6.76923 2.61963H4.30769C3.742 2.61963 3.18184 2.73821 2.65921 2.96859C2.13658 3.19898 1.6617 3.53666 1.26169 3.96235C0.861688 4.38805 0.544385 4.89342 0.327903 5.44962C0.111422 6.00582 0 6.60195 0 7.20398C0 7.80601 0.111422 8.40214 0.327903 8.95833C0.544385 9.51453 0.861688 10.0199 1.26169 10.4456C1.6617 10.8713 2.13658 11.209 2.65921 11.4394C3.18184 11.6698 3.742 11.7883 4.30769 11.7883H6.76923V15.7178H1.23077V18.3374H6.76923V20.957H9.23077V18.3374H11.6923C12.8348 18.3374 13.9305 17.8544 14.7383 16.9947C15.5462 16.1349 16 14.9689 16 13.7531C16 12.5372 15.5462 11.3712 14.7383 10.5114C13.9305 9.65169 12.8348 9.1687 11.6923 9.1687H9.23077V5.23926H14.7692V2.61963H9.23077V0H6.76923V2.61963ZM9.23077 11.7883H11.6923C12.1819 11.7883 12.6515 11.9953 12.9977 12.3638C13.344 12.7322 13.5385 13.232 13.5385 13.7531C13.5385 14.2741 13.344 14.7739 12.9977 15.1423C12.6515 15.5108 12.1819 15.7178 11.6923 15.7178H9.23077V11.7883ZM6.76923 9.1687H4.30769C4.06525 9.1687 3.82519 9.11788 3.6012 9.01915C3.37721 8.92041 3.1737 8.77569 3.00226 8.59325C2.83083 8.41081 2.69485 8.19422 2.60207 7.95585C2.50929 7.71747 2.46154 7.46199 2.46154 7.20398C2.46154 6.94597 2.50929 6.69048 2.60207 6.45211C2.69485 6.21374 2.83083 5.99715 3.00226 5.81471C3.1737 5.63227 3.37721 5.48755 3.6012 5.38881C3.82519 5.29008 4.06525 5.23926 4.30769 5.23926H6.76923V9.1687Z" fill="#D52B1E"/>
</svg>
