<svg width="16" height="20" viewBox="0 0 16 20" fill="none" xmlns="http://www.w3.org/2000/svg">
<path d="M5.92161 4.54545L2.80143 1.18182C3.04598 0.5 3.66159 0 4.37838 0L12.8113 0.0090909C13.7389 0.0090909 14.4979 0.818182 14.4979 1.81818V13.7909L12.8113 11.9727V4.54545H5.92161ZM15.7544 19C15.6764 19.0843 15.5837 19.1511 15.4817 19.1968C15.3797 19.2424 15.2703 19.2659 15.1599 19.2659C15.0494 19.2659 14.9401 19.2424 14.838 19.1968C14.736 19.1511 14.6434 19.0843 14.5653 19L14.3967 18.8182C14.1437 19.5 13.5281 20 12.8113 20H4.37838C3.45076 20 2.6918 19.1818 2.6918 18.1818V6.20909L0.246258 3.57273C0.0885817 3.40275 0 3.17221 0 2.93182C0 2.69143 0.0885817 2.46089 0.246258 2.29091C0.403935 2.12093 0.61779 2.02544 0.840779 2.02544C1.06377 2.02544 1.27762 2.12093 1.4353 2.29091L15.7459 17.7182C16.0833 18.0727 16.0833 18.6455 15.7544 19ZM11.2681 15.4545L4.37838 8.02727V15.4545H11.2681Z" fill="#3A784E"/>
</svg>
