<svg width="20" height="20" viewBox="0 0 20 20" fill="none" xmlns="http://www.w3.org/2000/svg">
<path d="M5.2632 5.26316C5.2632 5.54233 5.15229 5.81007 4.95489 6.00748C4.75748 6.20489 4.48973 6.31579 4.21056 6.31579H3.15792C2.87874 6.31579 2.611 6.42669 2.41359 6.6241C2.21618 6.8215 2.10528 7.08925 2.10528 7.36842V16.8421C2.10528 17.1213 2.21618 17.389 2.41359 17.5864C2.611 17.7838 2.87874 17.8947 3.15792 17.8947H12.6317C12.9108 17.8947 13.1786 17.7838 13.376 17.5864C13.5734 17.389 13.6843 17.1213 13.6843 16.8421V15.7895C13.6843 15.5103 13.7952 15.2426 13.9926 15.0451C14.19 14.8477 14.4578 14.7368 14.7369 14.7368C15.0161 14.7368 15.2839 14.8477 15.4813 15.0451C15.6787 15.2426 15.7896 15.5103 15.7896 15.7895V16.8421C15.7896 17.6796 15.4569 18.4829 14.8647 19.0751C14.2724 19.6673 13.4692 20 12.6317 20H3.15792C2.32039 20 1.51716 19.6673 0.924933 19.0751C0.332708 18.4829 0 17.6796 0 16.8421V7.36842C0 6.53089 0.332708 5.72767 0.924933 5.13545C1.51716 4.54323 2.32039 4.21053 3.15792 4.21053H4.21056C4.48973 4.21053 4.75748 4.32143 4.95489 4.51883C5.15229 4.71624 5.2632 4.98398 5.2632 5.26316Z" fill="black"/>
<path d="M12.2069 3.16941L16.8301 7.79257L10.2195 14.4273C10.1217 14.5254 10.0056 14.6032 9.8777 14.6563C9.74981 14.7094 9.6127 14.7367 9.47423 14.7368H6.31631C6.03713 14.7368 5.76939 14.6259 5.57198 14.4285C5.37457 14.2311 5.26367 13.9633 5.26367 13.6841V10.5263C5.2637 10.3878 5.29105 10.2507 5.34416 10.1228C5.39726 9.9949 5.47508 9.87875 5.57315 9.78099L12.2069 3.16941ZM19.0448 0.955724C19.6254 1.53589 19.9658 2.31369 19.998 3.13382C20.0302 3.95395 19.7518 4.75605 19.2185 5.37993L19.0459 5.56941L18.3164 6.29994L13.6985 1.68204L14.4301 0.955724C15.042 0.343783 15.872 0 16.7374 0C17.6029 0 18.4329 0.343783 19.0448 0.955724Z" fill="black"/>
</svg>
