<svg width="43" height="103" viewBox="0 0 43 103" fill="none" xmlns="http://www.w3.org/2000/svg">
<path d="M2.14526 32.1789H40.76C41.329 32.1789 41.8746 31.9529 42.2769 31.5506C42.6792 31.1483 42.9053 30.6026 42.9053 30.0337C42.9053 26.6199 41.5492 23.346 39.1353 20.9321C36.7214 18.5182 33.4474 17.1621 30.0337 17.1621V8.58105C31.1716 8.58105 32.2629 8.12902 33.0675 7.32439C33.8722 6.51976 34.3242 5.42844 34.3242 4.29053C34.3242 3.15261 33.8722 2.0613 33.0675 1.25667C32.2629 0.452036 31.1716 0 30.0337 0L12.8716 0C11.7337 0 10.6423 0.452036 9.83772 1.25667C9.03309 2.0613 8.58105 3.15261 8.58105 4.29053C8.58105 5.42844 9.03309 6.51976 9.83772 7.32439C10.6423 8.12902 11.7337 8.58105 12.8716 8.58105V17.1621C9.45782 17.1621 6.18389 18.5182 3.77 20.9321C1.35611 23.346 0 26.6199 0 30.0337C0 30.6026 0.226018 31.1483 0.628333 31.5506C1.03065 31.9529 1.5763 32.1789 2.14526 32.1789ZM2.14526 38.6147H40.76C41.329 38.6147 41.8746 38.8407 42.2769 39.2431C42.6792 39.6454 42.9053 40.191 42.9053 40.76V45.0505C42.9053 45.6195 42.6792 46.1651 42.2769 46.5675C41.8746 46.9698 41.329 47.1958 40.76 47.1958H2.14526C1.5763 47.1958 1.03065 46.9698 0.628333 46.5675C0.226018 46.1651 0 45.6195 0 45.0505V40.76C0 40.191 0.226018 39.6454 0.628333 39.2431C1.03065 38.8407 1.5763 38.6147 2.14526 38.6147ZM2.14526 53.6316H40.76C41.329 53.6316 41.8746 53.8576 42.2769 54.2599C42.6792 54.6622 42.9053 55.2079 42.9053 55.7768V60.0674C42.9053 60.6363 42.6792 61.182 42.2769 61.5843C41.8746 61.9866 41.329 62.2126 40.76 62.2126H2.14526C1.5763 62.2126 1.03065 61.9866 0.628333 61.5843C0.226018 61.182 0 60.6363 0 60.0674V55.7768C0 55.2079 0.226018 54.6622 0.628333 54.2599C1.03065 53.8576 1.5763 53.6316 2.14526 53.6316ZM40.76 68.6484H2.14526C1.5763 68.6484 1.03065 68.8744 0.628333 69.2767C0.226018 69.6791 0 70.2247 0 70.7937L0 98.6821C0 99.82 0.452036 100.911 1.25667 101.716C2.0613 102.521 3.15261 102.973 4.29053 102.973H38.6147C39.7527 102.973 40.844 102.521 41.6486 101.716C42.4532 100.911 42.9053 99.82 42.9053 98.6821V70.7937C42.9053 70.2247 42.6792 69.6791 42.2769 69.2767C41.8746 68.8744 41.329 68.6484 40.76 68.6484Z" fill="black"/>
</svg>
