<svg width="132" height="132" viewBox="0 0 132 132" fill="none" xmlns="http://www.w3.org/2000/svg">
<path d="M67.8737 15.3914C67.5853 15.0545 67.2274 14.7842 66.8246 14.5988C66.4218 14.4134 65.9836 14.3174 65.5402 14.3174C65.0967 14.3174 64.6586 14.4134 64.2558 14.5988C63.8529 14.7842 63.495 15.0545 63.2066 15.3914C55.1013 24.8714 28.6733 57.6459 28.6733 81.9234C28.6733 104.547 42.9178 118.789 65.5389 118.789C88.16 118.789 102.404 104.547 102.404 81.9234C102.404 57.6459 75.9764 24.8714 67.8737 15.3914ZM69.6351 105.476C69.143 105.478 68.6579 105.36 68.2206 105.135C67.7832 104.909 67.4064 104.582 67.1219 104.181C66.8374 103.779 66.6534 103.315 66.5856 102.828C66.5177 102.341 66.5679 101.844 66.7319 101.38C66.9414 100.775 67.3365 100.251 67.861 99.8834C68.3854 99.5157 69.0125 99.3228 69.653 99.3322C73.7194 99.3234 77.6168 97.7041 80.4922 94.8287C83.3676 91.9533 84.9869 88.0559 84.9957 83.9895C84.9863 83.349 85.1793 82.7219 85.547 82.1974C85.9147 81.673 86.4385 81.2779 87.0438 81.0684C87.5077 80.9044 88.0042 80.8542 88.4916 80.922C88.9789 80.9899 89.4428 81.1738 89.8443 81.4584C90.2457 81.7429 90.573 82.1197 90.7984 82.557C91.0239 82.9944 91.141 83.4795 91.14 83.9715C91.1339 89.6731 88.8662 95.1394 84.8346 99.1711C80.803 103.203 75.3366 105.47 69.6351 105.476Z" fill="black"/>
</svg>
