<?xml version="1.0" encoding="UTF-8" standalone="no"?>
<!-- Created with Inkscape (http://www.inkscape.org/) -->

<svg
   version="1.1"
   id="svg1"
   width="1723"
   height="1107"
   viewBox="0 0 1723 1107"
   sodipodi:docname="dc41ef309932402836dfe1ef8e0a4093f74fb44a.png"
   xmlns:inkscape="http://www.inkscape.org/namespaces/inkscape"
   xmlns:sodipodi="http://sodipodi.sourceforge.net/DTD/sodipodi-0.dtd"
   xmlns="http://www.w3.org/2000/svg"
   xmlns:svg="http://www.w3.org/2000/svg">
  <defs
     id="defs1" />
  <sodipodi:namedview
     id="namedview1"
     pagecolor="#ffffff"
     bordercolor="#000000"
     borderopacity="0.25"
     inkscape:showpageshadow="2"
     inkscape:pageopacity="0.0"
     inkscape:pagecheckerboard="0"
     inkscape:deskcolor="#d1d1d1"
     showgrid="false">
    <inkscape:grid
       id="grid1"
       units="px"
       originx="0"
       originy="0"
       spacingx="1"
       spacingy="1"
       empcolor="#0099e5"
       empopacity="0.30196078"
       color="#0099e5"
       opacity="0.14901961"
       empspacing="5"
       enabled="true"
       visible="false" />
    <inkscape:page
       x="0"
       y="0"
       width="1723"
       height="1107"
       id="page2"
       margin="0"
       bleed="0" />
  </sodipodi:namedview>
  <g
     inkscape:groupmode="layer"
     inkscape:label="Image"
     id="g1">
    <path
       style="fill:#d52b1d;stroke:none"
       d="m 100.29761,360.10717 h 173 c -5.40714,17.09869 -8.62976,40.06635 -9,58 h -136 v 62 h 123 c -3.89429,12.3147 -4.80731,26.24664 -6.91975,39 -0.69117,4.17273 -0.51442,12.28979 -3.67978,15.39661 -4.81441,4.7254 -22.91196,1.60339 -29.40047,1.60339 h -83 c 0,17.21777 -5.4133,45.74292 6.39043,59.95679 8.98614,10.82104 26.16848,8.04321 38.60957,8.04321 h 98 l -9,58 h -94 c -17.38986,0 -35.85291,1.77393 -53,-1.45984 -19.913876,-3.75561 -40.803856,-18.21692 -43.999996,-39.54016 h -1 c 4.59758,58.17456 30.789756,119.28906 59.989196,169 29.34718,49.96247 67.18687,94.64356 112.0108,131.38581 158.30701,129.76462 389.3475,145.59162 563.9999,38.80323 51.56,-31.52546 96.738,-72.40644 133.6505,-120.18903 29.2025,-37.80195 52.7163,-80.2497 69.39969,-125.00001 6.2918,-16.87671 13.5358,-35.073 15.9498,-53 h 66 v -115 c 0,-17.61121 1.3286,-39.02557 17,-50.21063 14.6639,-10.46601 33.0349,-5.08466 49,-1.78937 l 13,-57 c -13.7181,-1.08429 -27.1597,-4.66046 -41,-4.66046 -36.2573,0 -77.9438,11.71594 -94.135,47.66046 -3.9728,8.81952 -6.6268,18.41138 -7.865,28 -4.0084,-13.56049 -3.2346,-29.88043 -5.4244,-44 -4.1044,-26.4646 -10.6516,-52.44562 -18.601,-78 C 972.62291,288.58263 906.66031,199.78124 822.29751,140.82708 628.47261,5.3790311 350.36667,38.289671 192.12863,214.10717 c -28.91713,32.1297 -54.69082,67.23077 -74.07793,106 -6.37746,12.7533 -14.44399,26.03619 -17.75309,40 m 429,0 v 145 c 0,36.75171 1.047,74.22205 -18.4529,107 -47.3608,79.61011 -188.54591,71.52087 -225.11961,-14 -17.07672,-39.93079 -11.76294,-92.54346 16.87265,-126 39.21262,-45.81427 114.58188,-51.17468 160.69986,-14 v -98 h 66 m 1065.99989,0 v 98 c -17.103,-11.69275 -32.9102,-21.12366 -54,-23.71375 -75.1519,-9.22961 -140.6449,47.46869 -133.1698,124.71375 1.3776,14.23535 3.7819,27.93115 9.9507,41 39.0412,82.71008 178.2178,92.36768 224.7916,11 18.8439,-32.92157 17.4275,-69.40515 17.4275,-106 v -145 h -65 m -802.99999,206 h -170 c 2.2034,7.76453 4.3273,15.32343 9.0432,22 27.9107,39.51416 78.5144,30.9104 116.9568,16 -0.5153,12.00586 -2.6351,24.04004 -3.831,36 -0.414,4.14075 0.388,11.86243 -2.1967,15.29785 -3.064,4.07227 -13.2485,5.47974 -17.9723,6.49146 -17.1497,3.67334 -35.552,6.04089 -53,4.38049 -19.901,-1.89392 -38.5008,-4.00806 -57,-12.47845 -45.5813,-20.87067 -68.4886,-68.77649 -63.8301,-117.69135 2.4317,-25.53473 12.5243,-50.60919 30.8695,-68.96063 41.691,-41.70514 121.2355,-45.57813 167.9606,-10.2909 33.9091,25.6084 43,69.10938 43,109.25153 m 232.99999,96 h -64.99999 v -93 c 0,-17.79401 1.8762,-37.15521 -5.0146,-54 -11.78,-28.79645 -54.7131,-33.08026 -73.5949,-9 -11.3159,14.43134 -9.3905,33.85419 -9.3905,51 v 105 h -66 v -112 c 0,-24.73322 -1.3661,-49.90027 11.8225,-72 36.8514,-61.75079 163.3119,-62.17822 197.39279,3 11.6323,22.24622 9.7847,46.7265 9.7847,71 v 110 m 331,-58 c -35.8904,14.72449 -80.8348,22.28412 -110.9598,-9.00385 -7.4461,-7.73352 -13.1558,-18.18396 -14.0402,-28.99615 h 169 c 0,-41.25818 -9.0535,-84.14075 -44,-110.33484 -46.1644,-34.60242 -124.7161,-29.38684 -165.8302,10.62036 -19.9321,19.39551 -29.4127,45.52985 -32,72.71448 -4.5222,47.5155 20.1097,94.65869 63.8302,114.69135 18.8212,8.62384 37.7876,10.55493 58,12.47845 17.1517,1.6322 36.2253,-0.35114 53,-4.5448 4.713,-1.17822 13.8965,-2.15869 16.9869,-6.27393 2.5585,-3.4068 1.8197,-9.34942 2.2986,-13.35107 1.4961,-12.50146 3.6797,-25.40588 3.7145,-38 m -734.99999,-81 h 100 c -4.5581,-57.26849 -95.3764,-56.52911 -100,0 m 707.99999,0 h -100 c 7.3961,-54.65234 98.7788,-58.87012 100,0 M 401.29761,490.5462 c -15.90088,1.69921 -30.54092,5.22845 -41.82639,17.57562 -20.48989,22.41754 -19.51626,64.46216 1.91666,85.89508 12.55518,12.55517 31.52857,17.60254 48.90973,15.92047 10.81793,-1.04687 22.31097,-4.66406 30.99997,-11.3595 43.78933,-33.74225 17.89503,-114.21844 -39.99997,-108.03167 M 1533.2975,490.432 c 61.0358,-4.52875 84.1971,82.50384 33,112.21069 -7.6479,4.43769 -17.2123,6.76978 -26,7.375 -15.5613,1.07166 -32.0657,-2.59186 -44,-13.09497 -27.0474,-23.80377 -27.484,-73.03778 2.0039,-95.3009 10.21,-7.70838 22.5354,-10.26526 34.9961,-11.18982 z"
       id="path1" />
  </g>
</svg>
